<svg id="svg" version="1.1" xmlns="http://www.w3.org/2000/svg" xmlns:xlink="http://www.w3.org/1999/xlink" width="400" height="400" viewBox="0, 0, 400,400"><g id="svgg"><path id="path0" d="M193.453 17.481 C 193.314 17.620,193.203 17.928,193.206 18.167 C 193.209 18.405,193.387 18.330,193.600 18.000 C 193.900 17.536,193.996 17.673,194.025 18.600 C 194.046 19.266,194.165 19.533,194.292 19.200 C 194.417 18.870,194.697 18.484,194.914 18.343 C 195.133 18.200,194.952 17.895,194.507 17.657 C 194.066 17.421,193.592 17.342,193.453 17.481 M217.227 51.524 C 217.212 51.815,216.995 51.921,216.738 51.762 C 216.438 51.576,216.386 51.653,216.589 51.983 C 216.766 52.269,216.692 52.620,216.418 52.789 C 216.053 53.014,216.074 53.143,216.503 53.307 C 217.555 53.711,218.201 52.969,217.702 51.930 C 217.456 51.419,217.242 51.236,217.227 51.524 M241.800 58.000 C 241.936 58.220,241.829 58.400,241.562 58.400 C 241.246 58.400,241.308 58.656,241.740 59.133 C 242.682 60.175,243.600 60.064,243.600 58.910 C 243.600 58.383,243.432 58.056,243.228 58.183 C 243.023 58.309,242.742 58.230,242.604 58.007 C 242.466 57.783,242.173 57.600,241.953 57.600 C 241.733 57.600,241.664 57.780,241.800 58.000 M150.400 67.200 C 149.867 67.545,149.867 67.589,150.400 67.600 C 150.889 67.610,150.900 67.676,150.457 67.956 C 150.159 68.145,150.077 68.401,150.276 68.524 C 150.757 68.820,151.398 68.365,151.717 67.500 C 152.004 66.722,151.364 66.577,150.400 67.200 M194.676 67.781 C 194.357 68.100,193.984 68.280,193.848 68.181 C 193.711 68.081,193.694 68.124,193.808 68.275 C 194.261 68.872,195.443 68.629,195.495 67.927 C 195.562 67.048,195.432 67.025,194.676 67.781 M146.100 68.288 C 145.558 68.482,145.411 69.839,145.900 70.134 C 146.276 70.362,147.018 69.557,147.008 68.933 C 146.997 68.292,146.693 68.076,146.100 68.288 M140.480 69.680 C 139.809 70.351,139.882 71.069,140.651 71.364 C 141.545 71.707,142.361 70.937,142.112 69.985 C 141.880 69.097,141.192 68.968,140.480 69.680 M217.917 70.670 C 218.293 70.821,218.316 71.019,218.003 71.397 C 217.676 71.791,217.744 71.902,218.286 71.858 C 219.829 71.733,219.555 70.372,218.000 70.438 C 217.568 70.456,217.544 70.521,217.917 70.670 M125.437 73.847 C 125.292 74.225,125.330 74.690,125.520 74.880 C 126.051 75.411,127.133 74.829,127.023 74.072 C 126.889 73.158,125.763 72.998,125.437 73.847 M313.906 73.669 C 313.691 74.227,314.284 74.928,315.116 75.100 C 315.382 75.155,315.597 75.065,315.594 74.900 C 315.584 74.424,314.814 73.356,314.800 73.800 C 314.793 74.020,314.636 73.960,314.450 73.666 C 314.168 73.222,314.077 73.222,313.906 73.669 M99.606 80.387 C 99.632 81.283,100.342 81.634,100.741 80.948 C 100.992 80.516,101.181 80.421,101.188 80.724 C 101.195 81.012,101.383 81.134,101.607 80.996 C 102.280 80.580,101.628 80.007,100.580 80.093 C 100.041 80.138,99.603 80.270,99.606 80.387 M93.833 81.458 C 93.499 82.330,93.517 82.357,94.400 82.290 C 95.319 82.221,95.477 81.392,94.633 81.068 C 94.321 80.948,93.961 81.124,93.833 81.458 M223.746 81.287 C 223.640 81.459,223.765 81.600,224.025 81.600 C 224.370 81.600,224.358 81.769,223.981 82.223 C 223.555 82.736,223.562 82.824,224.023 82.723 C 224.746 82.564,225.600 81.769,225.600 81.253 C 225.600 80.789,224.036 80.818,223.746 81.287 M63.297 88.609 C 63.460 88.784,63.371 89.194,63.100 89.521 C 62.679 90.028,62.746 90.071,63.553 89.815 C 64.205 89.608,64.415 89.652,64.226 89.957 C 64.076 90.201,64.143 90.400,64.376 90.400 C 65.152 90.400,64.813 89.235,63.900 88.760 C 63.405 88.502,63.133 88.434,63.297 88.609 M174.902 99.185 C 174.530 99.781,174.559 99.976,175.052 100.164 C 175.902 100.491,176.084 100.460,175.821 100.034 C 175.697 99.833,175.796 99.601,176.041 99.520 C 176.339 99.420,176.301 99.216,175.927 98.906 C 175.488 98.541,175.267 98.601,174.902 99.185 M352.618 148.372 C 352.467 148.614,352.207 148.728,352.039 148.624 C 351.871 148.520,351.733 148.689,351.733 149.000 C 351.733 149.311,351.883 149.472,352.067 149.359 C 352.250 149.245,352.400 149.356,352.400 149.605 C 352.400 149.859,352.687 149.770,353.054 149.403 C 353.500 148.957,353.578 148.618,353.299 148.339 C 353.021 148.061,352.803 148.071,352.618 148.372 M349.340 159.812 C 348.983 160.742,349.552 161.254,350.424 160.787 C 351.429 160.249,351.410 159.748,350.376 159.478 C 349.880 159.348,349.467 159.481,349.340 159.812 M344.324 185.288 C 344.209 185.886,344.270 186.281,344.458 186.164 C 344.646 186.048,344.813 186.188,344.828 186.476 C 344.864 187.138,345.536 185.609,345.566 184.800 C 345.584 184.310,345.524 184.300,345.242 184.745 C 344.951 185.206,344.868 185.206,344.715 184.745 C 344.614 184.445,344.439 184.690,344.324 185.288 M339.549 209.900 C 339.219 211.840,339.604 212.809,340.145 211.400 C 340.271 211.070,340.206 210.800,340.000 210.800 C 339.794 210.800,339.729 210.530,339.855 210.200 C 339.982 209.870,339.976 209.600,339.843 209.600 C 339.709 209.600,339.577 209.735,339.549 209.900 M338.600 214.400 C 338.235 214.990,338.740 215.598,339.388 215.349 C 339.697 215.231,339.852 214.879,339.732 214.567 C 339.478 213.906,338.953 213.829,338.600 214.400 M335.200 226.600 C 335.200 226.930,335.195 227.325,335.190 227.478 C 335.184 227.631,335.634 227.818,336.190 227.892 C 336.890 227.986,337.200 227.839,337.200 227.414 C 337.200 227.076,336.930 226.800,336.600 226.800 C 336.270 226.800,336.000 226.620,336.000 226.400 C 336.000 226.180,335.820 226.000,335.600 226.000 C 335.380 226.000,335.200 226.270,335.200 226.600 M332.832 238.476 C 332.814 239.068,333.011 239.683,333.268 239.842 C 333.580 240.035,333.653 239.916,333.488 239.486 C 333.321 239.049,333.415 238.908,333.780 239.048 C 334.076 239.161,334.438 239.062,334.583 238.827 C 334.728 238.592,334.646 238.400,334.400 238.400 C 334.149 238.400,334.084 238.181,334.253 237.900 C 334.480 237.522,334.398 237.526,333.916 237.917 C 333.394 238.339,333.240 238.339,333.070 237.917 C 332.956 237.633,332.849 237.884,332.832 238.476 M331.569 252.967 C 331.366 253.188,331.338 254.408,331.535 254.431 C 331.681 254.447,332.114 254.521,332.498 254.595 C 332.883 254.669,333.298 254.565,333.422 254.364 C 333.546 254.164,333.457 254.000,333.224 254.000 C 332.991 254.000,332.800 253.760,332.800 253.467 C 332.800 253.073,331.832 252.680,331.569 252.967 M67.600 257.150 C 66.795 257.485,66.687 258.271,67.407 258.547 C 67.738 258.674,68.163 258.443,68.395 258.009 C 68.852 257.155,68.501 256.775,67.600 257.150 M75.802 267.197 C 75.667 267.415,75.741 267.910,75.966 268.297 C 76.288 268.849,76.380 268.871,76.394 268.400 C 76.410 267.867,76.460 267.867,76.844 268.400 C 77.213 268.913,77.244 268.902,77.060 268.326 C 76.942 267.955,77.051 267.583,77.303 267.499 C 77.638 267.387,77.632 267.267,77.280 267.050 C 77.016 266.886,76.800 266.943,76.800 267.176 C 76.800 267.409,76.609 267.600,76.376 267.600 C 76.143 267.600,76.064 267.420,76.200 267.200 C 76.336 266.980,76.357 266.800,76.247 266.800 C 76.137 266.800,75.937 266.979,75.802 267.197 M72.000 270.480 C 72.000 271.467,72.108 271.652,72.475 271.285 C 73.209 270.551,73.289 269.200,72.597 269.200 C 72.192 269.200,72.000 269.611,72.000 270.480 M322.400 269.576 C 322.400 269.783,322.583 270.066,322.807 270.204 C 323.030 270.342,323.133 270.585,323.034 270.745 C 322.936 270.904,323.203 271.060,323.628 271.092 C 324.052 271.124,324.400 270.981,324.400 270.775 C 324.400 270.569,324.175 270.397,323.900 270.394 C 323.526 270.389,323.534 270.303,323.934 270.050 C 324.359 269.780,324.332 269.660,323.801 269.456 C 322.866 269.097,322.400 269.137,322.400 269.576 M54.433 273.360 C 53.815 274.104,54.303 275.158,55.232 275.088 C 56.133 275.020,56.236 274.178,55.440 273.383 C 54.971 272.914,54.806 272.911,54.433 273.360 M318.600 273.600 C 318.464 273.820,318.473 274.000,318.621 274.000 C 318.768 274.000,318.464 274.375,317.944 274.833 C 317.295 275.406,317.213 275.600,317.680 275.454 C 318.155 275.305,318.292 275.415,318.137 275.820 C 318.014 276.139,318.114 276.400,318.357 276.400 C 318.601 276.400,318.800 276.119,318.800 275.776 C 318.800 275.433,318.937 275.237,319.104 275.341 C 319.598 275.646,320.670 274.659,320.668 273.900 C 320.667 273.133,319.035 272.897,318.600 273.600 M334.000 277.800 C 333.726 278.130,333.659 278.414,333.851 278.431 C 334.043 278.447,334.493 278.518,334.851 278.588 C 335.318 278.679,335.447 278.500,335.305 277.957 C 335.066 277.044,334.667 276.996,334.000 277.800 M97.792 290.385 C 97.869 291.438,99.143 292.797,99.812 292.540 C 100.631 292.226,100.011 291.104,99.145 291.330 C 98.571 291.480,98.400 291.304,98.400 290.563 C 98.400 290.033,98.250 289.600,98.067 289.600 C 97.884 289.600,97.760 289.953,97.792 290.385 M344.543 291.000 C 344.873 291.330,345.330 291.600,345.559 291.600 C 345.788 291.600,345.871 291.330,345.745 291.000 C 345.618 290.670,345.161 290.400,344.729 290.400 C 344.030 290.400,344.010 290.467,344.543 291.000 M300.343 293.467 C 299.912 293.582,299.757 293.916,299.894 294.437 C 300.159 295.451,300.885 295.228,301.061 294.079 C 301.135 293.595,301.151 293.221,301.097 293.246 C 301.044 293.272,300.704 293.371,300.343 293.467 M298.000 296.043 C 298.000 296.286,297.730 296.382,297.400 296.255 C 297.070 296.129,296.800 296.199,296.800 296.413 C 296.800 296.626,296.950 296.800,297.133 296.800 C 297.317 296.800,297.467 297.070,297.467 297.400 C 297.467 297.730,297.317 298.000,297.133 298.000 C 296.950 298.000,296.800 297.780,296.800 297.511 C 296.800 297.242,296.520 297.422,296.177 297.911 C 295.835 298.400,295.293 298.800,294.974 298.800 C 294.511 298.800,294.486 298.949,294.851 299.533 C 295.468 300.520,296.255 300.463,296.225 299.433 C 296.208 298.855,296.414 298.636,296.900 298.718 C 297.523 298.822,297.788 298.391,297.647 297.500 C 297.568 296.998,298.322 297.166,298.497 297.690 C 298.586 297.959,298.765 297.779,298.893 297.289 C 299.044 296.709,298.975 296.492,298.695 296.665 C 298.422 296.833,298.358 296.687,298.519 296.266 C 298.660 295.900,298.601 295.600,298.387 295.600 C 298.174 295.600,298.000 295.799,298.000 296.043 M104.728 297.474 C 104.416 298.613,105.513 299.073,106.371 298.162 C 106.949 297.550,106.928 297.512,106.121 297.705 C 105.515 297.849,105.200 297.710,105.105 297.257 C 105.000 296.756,104.911 296.808,104.728 297.474 M107.454 300.202 C 107.328 300.531,107.410 300.800,107.636 300.800 C 107.862 300.800,107.944 300.968,107.817 301.172 C 107.475 301.726,108.152 302.002,108.819 301.580 C 109.218 301.328,109.243 301.210,108.900 301.206 C 108.625 301.203,108.400 300.941,108.400 300.624 C 108.400 299.796,107.726 299.496,107.454 300.202 M292.270 301.463 C 292.125 301.608,292.209 301.970,292.457 302.268 C 292.921 302.827,294.000 302.326,294.000 301.551 C 294.000 301.143,292.658 301.075,292.270 301.463 M291.600 302.824 C 291.600 303.057,291.435 303.145,291.232 303.020 C 291.030 302.895,290.601 303.056,290.280 303.377 C 289.958 303.699,289.597 303.864,289.478 303.744 C 289.358 303.625,289.323 303.858,289.399 304.263 C 289.476 304.669,289.553 305.135,289.569 305.300 C 289.646 306.047,291.249 305.523,291.584 304.642 C 291.784 304.115,292.172 303.609,292.445 303.518 C 292.718 303.427,292.809 303.138,292.647 302.876 C 292.282 302.286,291.600 302.251,291.600 302.824 M282.524 311.317 C 281.902 312.312,282.036 312.809,282.814 312.393 C 283.864 311.831,284.092 311.321,283.411 311.059 C 283.089 310.936,282.690 311.052,282.524 311.317 M144.180 338.353 C 143.707 338.827,144.094 339.405,144.915 339.452 C 145.548 339.489,145.829 339.283,145.829 338.784 C 145.829 338.132,144.696 337.837,144.180 338.353 M252.600 342.800 C 252.460 343.027,252.177 343.109,251.971 342.982 C 251.766 342.855,251.660 343.167,251.737 343.676 C 251.826 344.270,252.194 344.647,252.769 344.732 C 253.550 344.847,253.608 344.763,253.234 344.064 C 252.920 343.476,252.933 343.222,253.283 343.106 C 253.633 342.989,253.639 342.872,253.308 342.667 C 253.059 342.513,252.740 342.573,252.600 342.800 M246.662 347.131 C 246.298 347.534,246.000 348.149,246.000 348.498 C 246.000 348.848,245.794 349.202,245.543 349.286 C 245.204 349.399,245.211 349.673,245.570 350.343 C 246.131 351.393,246.996 351.287,246.998 350.168 C 246.999 349.747,247.184 349.402,247.410 349.401 C 247.635 349.400,248.327 348.929,248.949 348.353 L 250.078 347.305 248.779 346.853 C 248.065 346.604,247.445 346.400,247.402 346.400 C 247.359 346.400,247.026 346.729,246.662 347.131 M243.269 350.517 C 242.865 351.004,242.868 351.163,243.283 351.330 C 243.679 351.488,243.683 351.544,243.300 351.568 C 243.025 351.586,242.800 351.786,242.800 352.014 C 242.800 352.294,243.041 352.299,243.547 352.028 C 243.958 351.808,244.448 351.757,244.634 351.914 C 244.821 352.071,244.779 351.930,244.541 351.600 C 244.302 351.270,244.032 350.755,243.939 350.456 C 243.802 350.014,243.677 350.025,243.269 350.517 M155.338 351.018 C 154.978 351.955,155.711 352.499,156.528 351.901 C 157.167 351.434,157.158 351.365,156.398 350.891 C 155.711 350.463,155.543 350.483,155.338 351.018 M239.632 355.524 C 239.614 355.812,239.407 355.928,239.170 355.782 C 238.934 355.636,238.975 355.891,239.260 356.348 C 239.697 357.047,239.833 357.084,240.114 356.581 C 240.299 356.252,240.646 356.105,240.886 356.253 C 241.151 356.417,241.209 356.338,241.034 356.055 C 240.875 355.798,240.593 355.681,240.407 355.796 C 240.221 355.911,239.977 355.779,239.866 355.502 C 239.709 355.113,239.656 355.118,239.632 355.524 M160.626 355.958 C 160.504 356.155,160.688 356.425,161.035 356.558 C 162.126 356.977,162.480 356.823,161.857 356.200 C 161.164 355.507,160.933 355.461,160.626 355.958 M238.440 356.724 C 238.418 357.012,238.220 357.136,238.000 357.000 C 237.510 356.697,237.489 357.205,237.960 357.949 C 238.514 358.823,239.080 358.297,238.766 357.200 C 238.608 356.650,238.462 356.436,238.440 356.724 " stroke="none" fill="#fcfcfc" fill-rule="evenodd"></path><path id="path1" d="" stroke="none" fill="#100fcfc" fill-rule="evenodd"></path><path id="path2" d="" stroke="none" fill="#100fcfc" fill-rule="evenodd"></path></g></svg>